<svg width="48" height="43" viewBox="0 0 48 43" fill="none" xmlns="http://www.w3.org/2000/svg">
<path d="M38.324 32.9609C35.5275 32.9609 33.2623 35.0967 33.253 37.7422C33.253 40.3789 35.5182 42.5146 38.324 42.5146C41.1206 42.5146 43.3857 40.3789 43.3857 37.7422C43.3857 35.1055 41.1206 32.9609 38.324 32.9609ZM38.324 40.6074C36.6461 40.6074 35.2852 39.3242 35.2852 37.7422C35.2852 36.1602 36.6461 34.877 38.324 34.877C40.002 34.877 41.3629 36.1602 41.3629 37.7422C41.3629 39.3242 40.002 40.6074 38.324 40.6074Z" fill="#444444"/>
<path d="M18.0586 32.9609C15.2621 32.9609 12.9876 35.0967 12.9876 37.7422C12.9876 40.3877 15.2528 42.5146 18.0586 42.5146C20.8551 42.5146 23.1203 40.3789 23.1203 37.7422C23.1203 35.1055 20.8551 32.9609 18.0586 32.9609ZM18.0586 40.6074C16.3807 40.6074 15.0197 39.3242 15.0197 37.7422C15.0197 36.1602 16.3807 34.877 18.0586 34.877C19.7365 34.877 21.0975 36.1602 21.0975 37.7422C21.0975 39.3242 19.7365 40.6074 18.0586 40.6074Z" fill="#444444"/>
<path d="M46.4246 6.21582H9.96733L8.91397 1.25C8.82076 0.801758 8.40128 0.485352 7.92587 0.485352H1.8481C1.2888 0.485352 0.832031 0.916016 0.832031 1.44336C0.832031 1.9707 1.2888 2.40137 1.8481 2.40137H7.09624L12.0368 25.6836C12.7079 28.8037 15.6163 31.0537 18.9908 31.0625H42.379C42.9383 31.0625 43.3951 30.6318 43.3951 30.1045C43.3951 29.5771 42.9383 29.1465 42.379 29.1465H18.9908C17.3129 29.1465 15.7934 28.3643 14.8612 27.1338L44.5323 23.4072C44.9891 23.3545 45.3433 23.0117 45.4086 22.5811L47.4314 7.29688C47.4407 7.25293 47.4407 7.21777 47.4407 7.17383C47.4407 6.6377 46.9839 6.21582 46.4246 6.21582ZM43.4976 21.6055L14.0223 25.3145V25.3057L10.3775 8.13184H45.2781L43.4976 21.6055Z" fill="#444444"/>
<path d="M17.0612 22.6162C17.1451 23.0732 17.5645 23.416 18.0586 23.416C18.1145 23.416 18.1705 23.416 18.2264 23.4072C18.7764 23.3193 19.1492 22.8272 19.056 22.3086L17.0332 10.8477C17.0332 10.8301 17.0332 10.8213 17.0239 10.8037C16.9213 10.2852 16.39 9.94238 15.84 10.0391C15.29 10.1357 14.9265 10.6367 15.029 11.1553L17.0612 22.6162Z" fill="#444444"/>
<path d="M22.1135 21.5879C22.1602 22.0801 22.5983 22.458 23.1203 22.458C23.1483 22.458 23.1855 22.458 23.2135 22.458C23.7728 22.4141 24.183 21.9482 24.127 21.4209L23.111 10.9092C23.055 10.3818 22.5703 9.99512 22.011 10.0479C21.4517 10.1006 21.0415 10.5576 21.0975 11.085L22.1135 21.5879Z" fill="#444444"/>
<path d="M28.1913 21.5C28.7506 21.5 29.2074 21.0693 29.2074 20.542V10.9883C29.2074 10.4609 28.7506 10.0303 28.1913 10.0303C27.632 10.0303 27.1752 10.4609 27.1752 10.9883V20.542C27.1752 21.0693 27.632 21.5 28.1913 21.5Z" fill="#444444"/>
<path d="M33.1412 20.542C33.1784 20.542 33.2157 20.5508 33.253 20.5508C33.7657 20.5508 34.2038 20.1816 34.2598 19.6982L35.2758 11.1025C35.3411 10.5752 34.9403 10.1094 34.381 10.0479C33.831 9.99512 33.3276 10.373 33.2623 10.8916L32.2463 19.4873C32.1903 20.0059 32.5912 20.4805 33.1412 20.542Z" fill="#444444"/>
<path d="M38.324 19.5928C38.7901 19.5928 39.191 19.2939 39.3028 18.8721L41.3256 11.2256C41.4655 10.7158 41.1299 10.1973 40.5892 10.0654C40.0486 9.93359 39.4986 10.25 39.3588 10.7598L37.3359 18.4062C37.3173 18.4766 37.308 18.5557 37.308 18.6348C37.308 19.1621 37.7647 19.584 38.324 19.5928Z" fill="#444444"/>
</svg>
