<svg width="80" height="70" viewBox="0 0 80 70" fill="none" xmlns="http://www.w3.org/2000/svg">
<path d="M62.7208 62.1261C62.7208 66.4294 52.6817 69.9175 40.2997 69.9175C27.9155 69.9175 17.8765 66.4294 17.8765 62.1261C17.8765 57.8228 27.9151 54.3339 40.2997 54.3339C52.6817 54.3339 62.7208 57.8234 62.7208 62.1261Z" fill="#9CDAF1"/>
<path d="M34.2059 69.6276V64.0737C34.2059 63.3565 34.0752 62.7567 33.8569 62.2501C35.3035 63.3655 35.4012 66.1682 35.4012 66.1682V69.7319C36.7027 69.8328 38.0469 69.894 39.423 69.9124L39.3867 66.3663C39.1874 61.5187 35.0027 60.9254 35.0027 60.9254C33.4734 60.5806 33.4962 61.3426 33.6499 61.8349C32.1495 59.2944 28.1284 59.6226 28.1284 59.6226C26.7329 60.1166 28.0281 61.0073 28.0281 61.0073C30.2206 61.7985 30.4197 64.173 30.4197 64.173V69.1237C31.6271 69.3291 32.8915 69.4989 34.2065 69.6267L34.2059 69.6276Z" fill="#7DBBE6"/>
<path d="M51.8417 59.6216C51.8417 59.6216 47.82 59.2934 46.3198 61.8346C46.4735 61.3421 46.4969 60.5794 44.9672 60.9244C44.9672 60.9244 40.7827 61.5179 40.5835 66.3653L40.5468 69.9169C41.9207 69.9116 43.2646 69.8636 44.5687 69.7762V66.1675C44.5687 66.1675 44.6669 63.3647 46.113 62.2493C45.8947 62.7559 45.7641 63.3555 45.7641 64.0729V69.6844C47.0757 69.5704 48.3416 69.4164 49.5502 69.2259V64.1722C49.5502 64.1722 49.7495 61.7977 51.9418 61.0065C51.9418 61.0044 53.2357 60.1137 51.8405 59.6191L51.8417 59.6216Z" fill="#7DBBE6"/>
<path d="M79.8691 29.8275L79.9282 29.5364C73.3505 28.2305 66.6003 28.2173 62.5167 28.3858C63.1876 25.9859 63.3894 23.2245 63.3894 20.1451C63.3894 15.7286 61.7182 12.1955 59.0052 9.50699C59.4793 7.98752 60.1125 4.61306 58.3728 0.293183C58.3728 0.293183 55.3034 -0.674452 48.361 3.93905C45.6414 3.2642 42.747 2.93097 39.8484 2.93097C36.6592 2.93097 33.4366 3.3342 30.431 4.15282C23.2669 -0.699811 20.1043 0.294231 20.1043 0.294231C18.0399 5.41995 19.3163 9.21525 19.7041 10.1577C17.2777 12.7578 15.7963 16.0769 15.7963 20.1461C15.7963 23.2182 16.1486 25.9742 17.009 28.3695C12.8906 28.2207 6.38671 28.2779 0.0437012 29.5373L0.10196 29.8284C6.48317 28.5612 13.028 28.5172 17.1213 28.6711C17.3108 29.1669 17.5221 29.6479 17.759 30.1128C13.711 30.2423 6.79916 30.7545 0.175205 32.6099L0.256894 32.8949C6.9332 31.0259 13.905 30.5265 17.9137 30.4047C20.3323 34.8809 25.1006 37.7719 33.5835 38.6798C32.3795 39.4831 31.1512 40.8488 30.6535 43.1594C29.0128 43.9386 23.8189 45.8405 20.7027 40.5189C20.7027 40.5189 18.9583 37.3523 15.6194 37.1044C15.6194 37.1044 12.3806 37.0551 15.3959 39.1084C15.3959 39.1084 17.5631 40.1223 19.0584 43.9327C19.0584 43.9327 21.009 50.4318 30.422 48.3467V55.06C30.422 55.06 30.2229 57.4346 28.0304 58.2257C28.0304 58.2257 26.735 59.1162 28.1307 59.6102C28.1307 59.6102 34.2081 60.105 34.2081 55.1591V47.8387C34.2081 47.8387 33.9671 44.9356 35.4035 43.9264V55.9503C35.4035 55.9503 35.3043 58.8191 33.8096 59.9074C33.8096 59.9074 32.8127 61.6876 35.005 61.1936C35.005 61.1936 39.1895 60.6001 39.3889 55.7527L39.4837 43.5844H40.4895L40.5851 55.7527C40.7842 60.6001 44.9689 61.1936 44.9689 61.1936C47.1605 61.6876 46.1642 59.9074 46.1642 59.9074C44.6698 58.8191 44.5704 55.9503 44.5704 55.9503V44.0302C46.0059 45.1401 45.7657 47.8385 45.7657 47.8385V55.1589C45.7657 60.105 51.8434 59.61 51.8434 59.61C53.2378 59.116 51.9434 58.2255 51.9434 58.2255C49.7511 57.4344 49.5519 55.0598 49.5519 55.0598V45.4639C49.5519 41.7221 47.965 39.7405 46.4131 38.6945C55.4599 37.8038 59.8012 34.9034 61.8016 30.397C65.7642 30.5051 72.8954 30.9844 79.7167 32.8949L79.7978 32.6099C73.0155 30.7105 65.9314 30.219 61.9287 30.1033C62.1182 29.6481 62.2837 29.1747 62.4306 28.6876C66.4939 28.5199 73.276 28.522 79.8786 29.8319L79.8691 29.8275Z" fill="black"/>
<path d="M54.5414 19.9378C56.4899 21.6905 57.6297 23.8071 57.6297 26.0876C57.6297 36.7351 49.6356 37.0237 39.7754 37.0237C29.9134 37.0237 21.9202 35.5493 21.9202 26.0876C21.9202 23.8222 23.044 21.7188 24.9684 19.9732C28.1785 17.064 33.6114 18.6045 39.7752 18.6045C45.9113 18.6036 51.3255 17.0475 54.5403 19.9368L54.5414 19.9378Z" fill="#F4CBB2"/>
<path d="M33.8365 26.6294C33.8365 29.5622 32.1731 31.9393 30.1214 31.9393C28.0697 31.9393 26.4064 29.5622 26.4064 26.6294C26.4064 23.6969 28.0697 21.3207 30.1214 21.3207C32.1731 21.3228 33.8365 23.6973 33.8365 26.6294ZM53.7689 26.6294C53.7689 29.5622 52.1056 31.9393 50.0539 31.9393C48.0021 31.9393 46.3388 29.5622 46.3388 26.6294C46.3388 23.6969 48.0021 21.3207 50.0539 21.3207C52.1056 21.3228 53.7689 23.6973 53.7689 26.6294Z" fill="white"/>
<path d="M32.646 26.6964C32.646 28.6514 31.5357 30.2356 30.1691 30.2356C28.8026 30.2356 27.6925 28.6514 27.6925 26.6964C27.6925 24.7408 28.8017 23.1558 30.1691 23.1558C31.5348 23.1558 32.6451 24.7402 32.6451 26.6956L32.646 26.6964ZM52.5763 26.6964C52.5763 28.6514 51.466 30.2356 50.0995 30.2356C48.7329 30.2356 47.6228 28.6514 47.6228 26.6964C47.6228 24.7408 48.7321 23.1558 50.0995 23.1558C51.4652 23.1558 52.5755 24.7402 52.5755 26.6956L52.5763 26.6964Z" fill="#AD5C51"/>
<path d="M39.8312 32.2673C40.3442 32.2673 40.7602 31.8544 40.7602 31.345C40.7602 30.8356 40.3442 30.4226 39.8312 30.4226C39.3181 30.4226 38.9022 30.8356 38.9022 31.345C38.9022 31.8544 39.3181 32.2673 39.8312 32.2673Z" fill="#AD5C51"/>
<path d="M37.6634 33.6776C37.6086 33.5229 37.6905 33.3538 37.8452 33.2993C38.0007 33.2448 38.1715 33.3261 38.2262 33.4797C38.4655 34.15 39.1058 34.6002 39.8201 34.6002C40.5344 34.6002 41.1746 34.1502 41.4139 33.4797C41.4688 33.3251 41.6392 33.2448 41.7949 33.2993C41.9507 33.3538 42.0316 33.5229 41.9769 33.6776C41.6541 34.5838 40.7866 35.1926 39.8201 35.1926C38.8535 35.1926 37.9879 34.587 37.6649 33.6795L37.6634 33.6776Z" fill="#AD5C51"/>
<path d="M17.0641 37.8965C17.0641 38.1425 16.7737 38.3412 16.4161 38.3412C16.0587 38.3412 15.7681 38.1425 15.7681 37.8965C15.7681 37.6502 16.0587 37.4507 16.4161 37.4507C16.7737 37.4507 17.0641 37.6498 17.0641 37.8971V37.8965ZM18.8583 38.8857C18.8583 39.1317 18.5679 39.3304 18.2103 39.3304C17.8529 39.3304 17.5623 39.1317 17.5623 38.8857C17.5623 38.6394 17.8529 38.4399 18.2103 38.4399C18.5679 38.4399 18.8583 38.639 18.8583 38.8863V38.8857ZM19.9545 40.1725C19.9545 40.4186 19.664 40.6172 19.3064 40.6172C18.9491 40.6172 18.6584 40.4186 18.6584 40.1725C18.6584 39.9263 18.9491 39.7267 19.3064 39.7267C19.664 39.7267 19.9545 39.9258 19.9545 40.1731V40.1725ZM20.9508 41.6563C20.9508 41.9024 20.6603 42.1011 20.3027 42.1011C19.9454 42.1011 19.6547 41.9024 19.6547 41.6563C19.6547 41.4101 19.9454 41.2106 20.3027 41.2106C20.6603 41.2106 20.9508 41.4097 20.9508 41.657V41.6563ZM22.0458 43.0417C22.0458 43.2877 21.7554 43.4864 21.3978 43.4864C21.0405 43.4864 20.7498 43.2877 20.7498 43.0417C20.7498 42.7954 21.0405 42.5959 21.3978 42.5959C21.7554 42.5959 22.0458 42.795 22.0458 43.0423V43.0417ZM23.5424 44.2279C23.5424 44.4739 23.252 44.6726 22.8944 44.6726C22.537 44.6726 22.2464 44.4739 22.2464 44.2279C22.2464 43.9816 22.537 43.7821 22.8944 43.7821C23.252 43.7821 23.5424 43.9812 23.5424 44.2285V44.2279ZM25.6342 45.0201C25.6342 45.2662 25.3438 45.4648 24.9862 45.4648C24.6289 45.4648 24.3382 45.2662 24.3382 45.0201C24.3382 44.7739 24.6289 44.5743 24.9862 44.5743C25.3438 44.5743 25.6342 44.7734 25.6342 45.0207V45.0201ZM27.7176 45.0201C27.7176 45.2662 27.4272 45.4648 27.0696 45.4648C26.7122 45.4648 26.4216 45.2662 26.4216 45.0201C26.4216 44.7739 26.7122 44.5743 27.0696 44.5743C27.4272 44.5743 27.7176 44.7734 27.7176 45.0207V45.0201ZM29.8305 44.6764C29.8305 44.9225 29.5401 45.1211 29.1825 45.1211C28.8252 45.1211 28.5345 44.9225 28.5345 44.6764C28.5345 44.4301 28.8252 44.2306 29.1825 44.2306C29.5401 44.2306 29.8305 44.4297 29.8305 44.677V44.6764Z" fill="#C3E4D8"/>
<path d="M14.6848 39.2168L14.0376 41.4557C14.0376 41.4557 13.8687 42.2649 14.6371 42.4085C15.4392 42.393 15.3729 41.6484 15.3174 41.4065L14.6848 39.2168Z" fill="#9CDAF1"/>
</svg>
