<svg width="141" height="102" viewBox="0 0 141 102" fill="none" xmlns="http://www.w3.org/2000/svg">
<path d="M95.342 35.2106C91.7132 30.967 87.9068 26.5252 83.258 21.0972C77.0005 35.3592 71.2772 48.0771 65.9124 60.9383C65.1294 62.8345 65.8574 65.4497 66.1593 67.6842C66.9151 73.3076 63.8136 75.1983 58.2034 74.7501C51.0802 74.1771 43.8035 74.9895 36.6605 75.8019C35.4571 75.9352 33.9449 79.0325 33.7612 80.8848C33.5093 83.4353 34.3945 86.0899 34.7985 88.7176C34.1598 88.785 33.507 88.8555 32.8715 88.9371C32.7365 86.3834 32.6015 83.8297 32.4243 80.7507C30.4803 80.692 28.5516 81.105 27.0767 80.4818C25.3093 79.7454 22.8786 78.2948 22.6264 76.8214C22.2975 74.9343 23.3327 72.2992 24.6456 70.7161C30.3223 63.8886 36.384 57.3914 42.1157 50.6111C43.1987 49.3314 44.0354 47.2749 43.9138 45.6536C43.4167 39.1859 28.9166 23.0843 21.5424 21.5127C28.041 20.0712 33.4353 18.8746 40.2029 17.3733C37.0626 18.6193 35.1777 19.3641 32.0484 20.5929C36.1993 27.1261 40.0502 33.1765 44.4337 40.0888C55.5513 32.678 66.8271 26.316 76.514 18.0792C79.8018 15.2859 79.0898 7.78193 80.6696 0.229858C81.8372 4.02457 84.032 7.5617 83.1078 8.82097C79.6111 13.6207 83.079 16.2666 85.4269 19.0867C95.3088 30.9712 105.392 42.6922 115.313 54.5532C115.856 55.1902 115.671 56.434 115.824 57.3948C115.141 57.9324 114.472 58.4668 113.789 59.0044C108.752 52.9646 103.701 46.928 98.6677 40.9023C90.9523 48.1821 89.2895 57.5047 93.8715 66.1846C98.3765 74.7181 109.229 79.4529 118.887 77.1175C128.629 74.7633 135.613 66.1908 136.045 55.9384C136.409 47.3938 132.455 40.4753 125.114 37.3077C118.774 34.5713 111.263 34.5298 104.337 33.3043C111.308 27.1549 124.567 28.876 132.923 37.0899C142.797 46.7934 143.319 62.4915 134.112 72.8938C124.669 83.5711 108.009 85.277 96.8557 76.7037C84.6882 67.3753 83.9796 52.8471 95.342 35.2106ZM79.6428 22.0774C78.871 21.4765 78.1101 20.8583 77.3383 20.2573C69.0127 27.3309 60.5363 34.2598 52.47 41.6323C50.8757 43.0847 49.4967 46.8504 50.2868 48.4718C52.9159 53.9023 56.5474 58.8284 60.6606 65.3255C67.6082 49.485 73.6326 35.7796 79.6428 22.0774ZM40.8308 57.0138C37.5087 61.7302 34.5157 65.9875 31.5368 70.2417C32.0599 71.1948 32.583 72.1478 33.0888 73.0899C40.0481 71.7837 47.053 70.6159 53.9497 69.0266C54.9093 68.7989 56.3599 66.0271 55.9688 65.2674C53.3315 60.1357 50.2694 55.2318 47.3395 50.2541C46.4803 50.8011 45.6353 51.3449 44.7761 51.8919C47.5803 56.7044 50.3876 61.5312 53.1919 66.3438C52.4884 66.8562 51.7881 67.3827 51.0705 67.8983C47.8689 64.5102 44.6815 61.119 40.8308 57.0138Z" fill="white"/>
<path d="M51.8522 77.9384C51.3326 94.2991 37.2511 103.823 21.7848 100.661C6.78413 97.5881 -2.26593 83.1572 1.60763 68.4581C5.42284 53.9651 20.8375 45.4968 37.1058 51.1393C32.5608 52.1475 30.1489 52.9944 27.6776 53.1713C15.3922 54.0404 6.85521 61.5027 5.51968 72.7728C4.28706 83.0994 10.6587 92.6153 20.8351 95.7037C31.8388 99.0392 42.1701 94.4457 48.0054 83.7069C49.1189 81.6928 50.5689 79.8565 51.8522 77.9384Z" fill="white"/>
</svg>
