<svg width="189" height="70" viewBox="0 0 189 70" fill="none" xmlns="http://www.w3.org/2000/svg">
<g clip-path="url(#clip0_4_18)">
<path d="M97.2582 23.1856L106.221 22.6059C106.425 24.0721 106.8 25.1632 107.413 25.9474C108.402 27.1749 109.765 27.7886 111.571 27.7886C112.9 27.7886 113.956 27.4817 114.672 26.8339C115.354 26.3225 115.762 25.5041 115.762 24.6517C115.762 23.8334 115.388 23.0492 114.74 22.5377C114.059 21.924 112.457 21.3103 109.935 20.7647C105.812 19.8441 102.847 18.6167 101.109 17.0482C99.371 15.5821 98.3828 13.434 98.4509 11.1495C98.4509 9.5811 98.928 8.01266 99.814 6.717C100.836 5.25085 102.234 4.09157 103.903 3.44374C105.709 2.65952 108.231 2.25037 111.4 2.25037C115.285 2.25037 118.25 2.96639 120.295 4.43254C122.339 5.86459 123.566 8.18315 123.941 11.3541L115.081 11.8656C114.842 10.5017 114.365 9.51291 113.581 8.86508C112.798 8.21724 111.775 7.91038 110.446 7.91038C109.356 7.91038 108.538 8.14905 107.993 8.5923C107.482 9.00146 107.141 9.6152 107.175 10.2971C107.175 10.8086 107.447 11.2859 107.856 11.5928C108.299 12.0019 109.356 12.377 111.026 12.718C115.149 13.6045 118.08 14.491 119.886 15.4116C121.692 16.3322 122.987 17.4574 123.771 18.7871C124.589 20.151 124.998 21.7194 124.963 23.322C124.963 25.2314 124.418 27.1408 123.328 28.7433C122.203 30.414 120.636 31.7097 118.795 32.4939C116.853 33.3463 114.399 33.7896 111.469 33.7896C106.289 33.7896 102.711 32.8008 100.7 30.7891C98.6895 28.7774 97.4967 26.2543 97.2582 23.1856ZM2.1469 33.2781V2.79591H17.8568C20.7534 2.79591 23.0025 3.03458 24.5361 3.54603C26.0355 4.02338 27.3645 5.01218 28.2505 6.34194C29.2388 7.80809 29.7159 9.51291 29.6818 11.2859C29.784 14.2864 28.2505 17.1505 25.6265 18.6508C24.6042 19.2304 23.4796 19.6396 22.321 19.8441C23.1729 20.0828 24.0249 20.492 24.7746 20.9693C25.3539 21.4467 25.831 21.9922 26.274 22.5718C26.7852 23.1515 27.2282 23.7993 27.6031 24.4812L32.1695 33.3122H21.469L16.4255 23.9357C15.778 22.7423 15.2328 21.9581 14.7216 21.583C14.0401 21.1057 13.2222 20.867 12.4043 20.867H11.5865V33.244H2.1469V33.2781ZM11.5865 15.1388H15.5736C16.4255 15.0706 17.2434 14.9342 18.0613 14.7297C18.6747 14.6274 19.2199 14.2864 19.5948 13.775C20.5149 12.5475 20.3786 10.8086 19.254 9.75158C18.6406 9.24014 17.4479 8.96736 15.744 8.96736H11.5865V15.1388ZM0 59.396L8.96247 58.8164C9.16694 60.2825 9.5418 61.3736 10.1552 62.1578C11.1094 63.3853 12.5066 64.0331 14.3127 64.0331C15.6417 64.0331 16.6981 63.7262 17.4138 63.0784C18.0953 62.5329 18.5043 61.7487 18.5043 60.8962C18.5043 60.0779 18.1294 59.2937 17.4819 58.7823C16.8004 58.1685 15.1987 57.5548 12.6429 57.0092C8.51946 56.0886 5.55469 54.8612 3.81672 53.2927C2.07875 51.8266 1.09049 49.6785 1.15865 47.3941C1.15865 45.8256 1.63574 44.2572 2.52176 42.9615C3.5441 41.4954 4.94129 40.3361 6.6111 39.6883C8.41723 38.904 10.939 38.4949 14.1082 38.4949C17.9931 38.4949 20.9579 39.2109 23.0025 40.6771C25.0472 42.1432 26.2399 44.4277 26.6148 47.5986L17.7546 48.1101C17.516 46.7462 17.0389 45.7574 16.2551 45.1096C15.5054 44.4618 14.449 44.1549 13.12 44.189C12.0295 44.189 11.2116 44.4277 10.6664 44.905C10.1211 45.3142 9.81442 45.9279 9.8485 46.6098C9.8485 47.1213 10.1211 47.5986 10.5301 47.9055C10.9731 48.3147 12.0295 48.6897 13.6993 49.0307C17.8227 49.9172 20.7534 50.8037 22.5595 51.7243C24.3657 52.6449 25.6606 53.7701 26.4444 55.0998C27.2623 56.4637 27.6712 58.0321 27.6712 59.6006C27.6712 61.51 27.0919 63.3853 26.0355 64.9878C24.9109 66.6585 23.3433 67.9542 21.5031 68.7384C19.5607 69.5908 17.1071 70.0341 14.1764 70.0341C8.99655 70.0341 5.41838 69.0453 3.40778 67.0336C1.39719 64.9878 0.272623 62.4647 0 59.396H0Z" fill="white"/>
<path d="M45.3235 57.0092L53.5704 59.4983C53.1274 61.5782 52.2073 63.5558 50.9464 65.2947C49.7877 66.829 48.2542 68.0224 46.5163 68.8066C44.7442 69.5908 42.4951 70 39.7689 70C36.4633 70 33.7371 69.5226 31.6583 68.5679C29.5455 67.6132 27.7394 65.9084 26.2059 63.4876C24.6724 61.0667 23.9227 57.9639 23.9227 54.1792C23.9227 49.133 25.2517 45.246 27.9438 42.5524C30.636 39.8587 34.4186 38.4949 39.3258 38.4949C43.1766 38.4949 46.1755 39.2791 48.3906 40.8134C50.5715 42.3819 52.2073 44.7686 53.2978 47.9737L44.9828 49.8149C44.7783 49.0989 44.4716 48.3828 44.0627 47.7691C43.5515 47.0531 42.904 46.5075 42.1202 46.0984C41.3364 45.6892 40.4504 45.5187 39.5644 45.5187C37.4175 45.5187 35.7817 46.3712 34.6572 48.1101C33.8052 49.3716 33.3622 51.3833 33.3622 54.111C33.3622 57.4866 33.8734 59.8052 34.8957 61.0667C35.9181 62.3283 37.3493 62.942 39.2236 62.942C41.0297 62.942 42.3929 62.4306 43.313 61.4418C44.2331 60.3848 44.9146 58.9186 45.3235 57.0092ZM64.5775 39.0063H73.983V49.6785H84.2745V39.0063H93.7482V69.4885H84.2745V57.1456H73.983V69.4885H64.5775V39.0063Z" fill="white"/>
<path d="M92.4532 54.2475C92.4532 49.2694 93.8504 45.3824 96.6107 42.6206C99.371 39.8588 103.256 38.4608 108.197 38.4608C113.275 38.4608 117.16 39.8247 119.92 42.5524C122.68 45.2801 124.043 49.0989 124.043 54.0088C124.043 57.5889 123.43 60.4871 122.237 62.7716C121.079 65.0219 119.272 66.8632 117.057 68.0906C114.774 69.3522 111.946 70 108.572 70C105.13 70 102.302 69.4545 100.053 68.3634C97.7353 67.2041 95.8269 65.397 94.566 63.1807C93.1688 60.794 92.4532 57.8276 92.4532 54.2475ZM101.859 54.2816C101.859 57.3502 102.438 59.5665 103.563 60.9304C104.687 62.2601 106.255 62.9421 108.231 62.9421C110.242 62.9421 111.809 62.2942 112.934 60.9645C114.059 59.6347 114.604 57.2821 114.604 53.8724C114.604 51.0083 114.024 48.8943 112.866 47.5987C111.707 46.2689 110.14 45.6211 108.163 45.6211C106.425 45.5529 104.755 46.303 103.597 47.6328C102.438 48.9625 101.859 51.1788 101.859 54.2816ZM133.687 54.2475C133.687 49.2694 135.085 45.3824 137.845 42.6206C140.605 39.8588 144.49 38.4608 149.431 38.4608C154.509 38.4608 158.428 39.8247 161.154 42.5524C163.88 45.2801 165.278 49.0989 165.278 54.0088C165.278 57.5889 164.664 60.4871 163.471 62.7716C162.313 65.0219 160.507 66.8632 158.292 68.0906C156.008 69.3522 153.18 70 149.806 70C146.364 70 143.536 69.4545 141.287 68.3634C138.969 67.2041 137.061 65.397 135.8 63.1807C134.403 60.794 133.687 57.8276 133.687 54.2475ZM143.093 54.2816C143.093 57.3502 143.672 59.5665 144.797 60.9304C145.921 62.2601 147.489 62.9421 149.465 62.9421C151.476 62.9421 153.044 62.2942 154.168 60.9645C155.293 59.6347 155.838 57.2821 155.838 53.8724C155.838 51.0083 155.259 48.8943 154.1 47.5987C152.941 46.2689 151.374 45.6211 149.397 45.6211C147.659 45.5529 145.955 46.303 144.831 47.6328C143.672 48.9625 143.093 51.1788 143.093 54.2816Z" fill="white"/>
<path d="M164.289 39.0063H173.695V61.9874H188.382V69.4886H164.255V39.0063H164.289Z" fill="white"/>
<path d="M153.922 37.2472C163.392 30.1074 166.312 18.0043 160.444 10.2142C154.577 2.42402 142.144 1.89682 132.675 9.03661C123.206 16.1764 120.286 28.2795 126.153 36.0696C132.02 43.8598 144.453 44.387 153.922 37.2472Z" fill="white"/>
<path d="M153.922 37.2472C163.392 30.1074 166.312 18.0043 160.444 10.2142C154.577 2.42402 142.144 1.89682 132.675 9.03661C123.206 16.1764 120.286 28.2795 126.153 36.0696C132.02 43.8598 144.453 44.387 153.922 37.2472Z" fill="white"/>
<path d="M153.922 37.2472C163.392 30.1074 166.312 18.0043 160.444 10.2142C154.577 2.42402 142.144 1.89682 132.675 9.03661C123.206 16.1764 120.286 28.2795 126.153 36.0696C132.02 43.8598 144.453 44.387 153.922 37.2472Z" fill="white" stroke="white" stroke-width="4" stroke-miterlimit="10"/>
<path d="M153.922 37.2472C163.392 30.1074 166.312 18.0043 160.444 10.2142C154.577 2.42402 142.144 1.89682 132.675 9.03661C123.206 16.1764 120.286 28.2795 126.153 36.0696C132.02 43.8598 144.453 44.387 153.922 37.2472Z" stroke="white" stroke-width="4" stroke-miterlimit="10"/>
<path d="M153.922 37.2472C163.392 30.1074 166.312 18.0043 160.444 10.2142C154.577 2.42402 142.144 1.89682 132.675 9.03661C123.206 16.1764 120.286 28.2795 126.153 36.0696C132.02 43.8598 144.453 44.387 153.922 37.2472Z" fill="white" stroke="white" stroke-width="4" stroke-miterlimit="10"/>
<path d="M153.922 37.2472C163.392 30.1074 166.312 18.0043 160.444 10.2142C154.577 2.42402 142.144 1.89682 132.675 9.03661C123.206 16.1764 120.286 28.2795 126.153 36.0696C132.02 43.8598 144.453 44.387 153.922 37.2472Z" fill="#FFE600" stroke="black" stroke-width="4" stroke-miterlimit="10"/>
<path d="M133.721 20.9011L137.129 18.5144L141.321 24.4813C142.036 25.436 142.582 26.4589 142.991 27.584C143.229 28.4364 143.161 29.357 142.82 30.1754C142.377 31.1983 141.662 32.0507 140.707 32.6644C139.583 33.4486 138.629 33.8919 137.811 34.0283C137.027 34.1646 136.209 34.0283 135.459 33.6873C134.642 33.2781 133.926 32.6985 133.381 31.9484L136.311 29.2207C136.55 29.5957 136.857 29.9367 137.197 30.2095C137.436 30.3799 137.709 30.4822 138.015 30.4822C138.254 30.4822 138.492 30.3799 138.663 30.2436C139.004 30.039 139.242 29.6298 139.208 29.2207C139.106 28.641 138.867 28.0614 138.492 27.6181L133.721 20.9011ZM143.945 24.6858L147.046 22.2309C147.387 22.64 147.83 22.9469 148.307 23.1174C148.988 23.322 149.704 23.1856 150.283 22.7423C150.692 22.4696 151.033 22.0945 151.169 21.6172C151.374 21.0034 151.033 20.3215 150.42 20.1169C150.317 20.0828 150.215 20.0487 150.113 20.0487C149.704 20.0146 148.988 20.1851 147.932 20.6284C146.194 21.3444 144.831 21.6172 143.809 21.5149C142.82 21.4126 141.9 20.9011 141.355 20.0487C140.946 19.4691 140.742 18.7872 140.707 18.1052C140.707 17.321 140.912 16.5368 141.355 15.889C142.002 14.9683 142.786 14.1841 143.74 13.5704C145.172 12.5816 146.433 12.1042 147.523 12.1042C148.614 12.1042 149.636 12.6157 150.59 13.6727L147.523 16.0935C146.91 15.3093 145.751 15.1388 144.967 15.7526L144.865 15.8549C144.524 16.0594 144.286 16.3663 144.149 16.7414C144.047 17.0141 144.115 17.321 144.286 17.5597C144.422 17.7302 144.626 17.8665 144.865 17.8665C145.138 17.9006 145.615 17.7643 146.296 17.4574C148 16.7414 149.295 16.3322 150.181 16.1958C150.931 16.0594 151.715 16.1276 152.43 16.4345C153.078 16.7073 153.623 17.1846 153.998 17.7643C154.475 18.4462 154.748 19.2645 154.782 20.1169C154.816 21.0034 154.577 21.8558 154.1 22.606C153.487 23.5266 152.703 24.3108 151.783 24.9245C149.908 26.2202 148.375 26.7657 147.148 26.5611C145.819 26.3566 144.729 25.6746 143.945 24.6858Z" fill="black"/>
</g>
<defs>
<clipPath id="clip0_4_18">
<rect width="188.382" height="70" fill="white"/>
</clipPath>
</defs>
</svg>
